# xmcd CD database file
#
# Track frame offsets:
#	150
#	13520
#	26202
#	39193
#	65345
#	77956
#	88617
#	108039
#	119290
#	133935
#	151418
#	170107
#	183595
#	197318
#	212249
#	224125
#	237027
#	249384
#	263375
#	276887
#	295310
#	308401
#	337108
#
# Disc length: 4601 seconds
#
# Revision: 0
# Processed by: cddbd v1.5.1PL0 Copyright (c) Steve Scherf et al.
# Submitted via: CDex 1.51
#
DISCID=4a11f717
DTITLE=Erroll Garner - Enjoys Rodgers and Porter
DYEAR=1900
DGENRE=Jazz
TTITLE0=Blue Room
TTITLE1=If I Loved You
TTITLE2=Where Or When
TTITLE3=Lover
TTITLE4=It's Easy to Remember
TTITLE5=This Can't Be Love
TTITLE6=My Heart Stood Still
TTITLE7=Spring Is Here
TTITLE8=Lover
TTITLE9=People Will Say We're In Love
TTITLE10=Bewitched
TTITLE11=Oh, What a Beautiful Mornin'
TTITLE12=I Get a Kick Out of You
TTITLE13=Night and Day
TTITLE14=I Got You Under My Skin
TTITLE15=Love For Sale
TTITLE16=What Is This Thing Called Love
TTITLE17=Rosalie
TTITLE18=What Is This Thing Called Love
TTITLE19=Anything Goes
TTITLE20=Easy To Love
TTITLE21=Love For Sale
TTITLE22=Data
EXTD=
EXTT0=
EXTT1=
EXTT2=
EXTT3=
EXTT4=
EXTT5=
EXTT6=
EXTT7=
EXTT8=
EXTT9=
EXTT10=
EXTT11=
EXTT12=
EXTT13=
EXTT14=
EXTT15=
EXTT16=
EXTT17=
EXTT18=
EXTT19=
EXTT20=
EXTT21=
EXTT22=
PLAYORDER=
